<?xml version="1.0" encoding="UTF-8"?>
<svg width="24px" height="24px" viewBox="0 0 24 24" version="1.1" xmlns="http://www.w3.org/2000/svg">
    <g stroke="none" stroke-width="1" fill="none" fill-rule="evenodd">
        <g fill="#FFFFFF">
            <path d="M12,3 C14.7614237,3 17,5.23857625 17,8 C17,8.46585903 16.9320201,8.91740341 16.8029383,9.34595386 C17.4918254,9.74935333 18,10.5210863 18,11.4 C18,12.7254834 16.9254834,13.8 15.6,13.8 L14.5,13.8 L14.5,19 C14.5,19.5522847 14.0522847,20 13.5,20 L10.5,20 C9.94771525,20 9.5,19.5522847 9.5,19 L9.5,13.8 L8.4,13.8 C7.07451658,13.8 6,12.7254834 6,11.4 C6,10.5210863 6.50817463,9.74935333 7.19706174,9.34595386 C7.06797987,8.91740341 7,8.46585903 7,8 C7,5.23857625 9.23857625,3 12,3 Z"/>
            <path d="M5,9 C6.65685425,9 8,10.3431458 8,12 C8,12.3052427 7.94871164,12.5987203 7.85318902,12.8737527 C8.27408335,13.1351964 8.55555556,13.6106414 8.55555556,14.1666667 C8.55555556,15.0298765 7.85207533,15.7333333 7,15.7333333 L6.33333333,15.7333333 L6.33333333,19 C6.33333333,19.5522847 5.88561808,20 5.33333333,20 L3.66666667,20 C3.11438192,20 2.66666667,19.5522847 2.66666667,19 L2.66666667,15.7333333 L2,15.7333333 C1.14792467,15.7333333 0.444444444,15.0298765 0.444444444,14.1666667 C0.444444444,13.6106414 0.726196522,13.1351964 1.14677943,12.8737527 C1.05129675,12.5987203 1,12.3052427 1,12 C1,10.3431458 2.34314575,9 4,9 L5,9 Z" transform="translate(4.500000, 14.500000) scale(-1, 1) translate(-4.500000, -14.500000) "/>
        </g>
    </g>
</svg> 